<svg version="1.1" id="Layer_1" xmlns="http://www.w3.org/2000/svg" xmlns:xlink="http://www.w3.org/1999/xlink" x="0px" y="0px"
	 width="100%" viewBox="0 0 225 225" enable-background="new 0 0 225 225" xml:space="preserve">
<path fill="#8DC540" opacity="1.000000" stroke="none" 
	d="
M133.000000,226.000000 
	C120.645775,226.000000 108.291542,226.000000 95.696526,225.631561 
	C92.541725,224.458771 89.629028,223.649628 86.713486,222.850845 
	C64.316902,216.714691 44.977776,205.741318 29.480927,188.059509 
	C15.430979,172.028580 6.344729,153.844910 2.931072,132.800095 
	C2.819735,132.113708 1.667184,131.596222 1.000000,131.000000 
	C1.000000,119.312439 1.000000,107.624878 1.386072,95.673508 
	C2.199930,93.582039 2.564670,91.736923 3.065049,89.929367 
	C9.632617,66.204903 20.195013,44.975056 39.594044,28.794901 
	C54.226429,16.590462 70.167694,7.430303 89.077065,3.853844 
	C90.835075,3.521338 92.364464,1.980037 94.000000,1.000001 
	C105.687561,1.000000 117.375122,1.000000 129.235580,1.241903 
	C130.036163,1.806669 130.632416,2.311193 131.296097,2.426025 
	C151.952438,6.000054 170.549698,14.428888 186.302155,28.057627 
	C206.256378,45.321671 219.276321,67.016663 224.062012,93.289330 
	C224.183289,93.955132 225.330994,94.433968 226.000000,95.000000 
	C226.000000,107.020897 226.000000,119.041786 225.611786,131.328369 
	C224.818314,132.261597 224.210236,132.881500 224.040421,133.604370 
	C222.855148,138.650085 222.287155,143.906616 220.546143,148.744659 
	C212.878326,170.052643 200.697388,188.130753 182.504410,202.112366 
	C169.080215,212.429092 154.438004,219.645645 137.865204,223.081314 
	C136.116913,223.443771 134.615799,224.998459 133.000000,226.000000 
M142.659668,67.270004 
	C151.358414,70.524872 160.131058,73.597961 168.731628,77.094322 
	C175.166992,79.710464 181.815842,82.199638 187.596069,85.940613 
	C197.531921,92.371109 199.711182,102.001846 194.068283,112.479942 
	C191.736542,116.809685 188.555069,120.814583 185.175354,124.418961 
	C178.570175,131.463150 171.358856,137.938843 164.750610,144.980331 
	C152.965668,157.537888 142.249466,170.925888 135.963547,187.219940 
	C132.479385,196.251389 130.201401,205.553497 132.220245,215.394882 
	C170.480774,210.444214 215.802002,173.518295 217.562714,116.564270 
	C218.860504,74.583588 193.932175,30.869221 146.635498,14.909389 
	C99.262825,-1.076092 48.247982,18.618259 23.088726,61.941677 
	C1.003371,99.971939 8.345854,147.778854 28.528410,172.051559 
	C30.450819,166.332336 33.011444,161.147049 33.875271,155.693008 
	C36.575474,138.644394 38.756752,121.509476 40.894138,104.377441 
	C42.064167,94.999161 43.892799,85.870110 50.013783,78.376930 
	C61.682262,64.092598 77.634804,57.888710 95.350937,56.187302 
	C101.999062,55.548832 108.870316,57.233799 116.329231,58.257839 
	C124.894325,61.159664 133.459427,64.061485 142.659668,67.270004 
M117.085197,79.612602 
	C112.381577,70.796677 105.373177,66.945572 95.947144,67.997276 
	C85.243797,69.191498 77.486145,79.373924 78.837090,90.455315 
	C80.135300,101.104034 90.334366,109.416260 100.378609,108.011620 
	C114.550583,106.029739 121.850349,94.174545 117.085197,79.612602 
M171.151306,127.780220 
	C154.091507,134.083038 136.774765,137.525864 117.873436,131.673599 
	C131.097855,144.837952 167.016968,134.328766 178.085892,124.851242 
	C176.009109,125.729279 173.932327,126.607307 171.151306,127.780220 
M174.684219,109.800949 
	C175.551392,106.951096 174.655136,104.753136 171.746338,104.160675 
	C170.408783,103.888252 167.615540,104.759277 167.545517,105.354485 
	C167.302170,107.423248 167.962219,109.598297 168.278687,111.732925 
	C170.232346,111.269485 172.185989,110.806053 174.684219,109.800949 
z"/>
<path fill="#000000" opacity="1.000000" stroke="none" 
	d="
M226.000000,94.531342 
	C225.330994,94.433968 224.183289,93.955132 224.062012,93.289330 
	C219.276321,67.016663 206.256378,45.321671 186.302155,28.057627 
	C170.549698,14.428888 151.952438,6.000054 131.296097,2.426025 
	C130.632416,2.311193 130.036163,1.806669 129.704239,1.241903 
	C161.926147,1.000000 193.852310,1.000000 226.000000,1.000000 
	C226.000000,32.020542 226.000000,63.041615 226.000000,94.531342 
z"/>
<path fill="#000000" opacity="1.000000" stroke="none" 
	d="
M1.000000,131.468658 
	C1.667184,131.596222 2.819735,132.113708 2.931072,132.800095 
	C6.344729,153.844910 15.430979,172.028580 29.480927,188.059509 
	C44.977776,205.741318 64.316902,216.714691 86.713486,222.850845 
	C89.629028,223.649628 92.541725,224.458771 95.227867,225.631561 
	C63.739357,226.000000 32.478714,226.000000 1.000000,226.000000 
	C1.000000,194.646103 1.000000,163.291718 1.000000,131.468658 
z"/>
<path fill="#000000" opacity="1.000000" stroke="none" 
	d="
M133.468658,226.000000 
	C134.615799,224.998459 136.116913,223.443771 137.865204,223.081314 
	C154.438004,219.645645 169.080215,212.429092 182.504410,202.112366 
	C200.697388,188.130753 212.878326,170.052643 220.546143,148.744659 
	C222.287155,143.906616 222.855148,138.650085 224.040421,133.604370 
	C224.210236,132.881500 224.818314,132.261597 225.611786,131.797028 
	C226.000000,163.259857 226.000000,194.519730 226.000000,226.000000 
	C195.312790,226.000000 164.625061,226.000000 133.468658,226.000000 
z"/>
<path fill="#000000" opacity="1.000000" stroke="none" 
	d="
M93.531342,1.000001 
	C92.364464,1.980037 90.835075,3.521338 89.077065,3.853844 
	C70.167694,7.430303 54.226429,16.590462 39.594044,28.794901 
	C20.195013,44.975056 9.632617,66.204903 3.065049,89.929367 
	C2.564670,91.736923 2.199930,93.582039 1.386072,95.204849 
	C1.000000,63.740135 1.000000,32.480270 1.000000,1.000000 
	C31.687210,1.000000 62.374947,1.000000 93.531342,1.000001 
z"/>
<path fill="#F6EB88" opacity="1.000000" stroke="none" 
	d="
M115.639847,57.859482 
	C108.870316,57.233799 101.999062,55.548832 95.350937,56.187302 
	C77.634804,57.888710 61.682262,64.092598 50.013783,78.376930 
	C43.892799,85.870110 42.064167,94.999161 40.894138,104.377441 
	C38.756752,121.509476 36.575474,138.644394 33.875271,155.693008 
	C33.011444,161.147049 30.450819,166.332336 28.528410,172.051559 
	C8.345854,147.778854 1.003371,99.971939 23.088726,61.941677 
	C48.247982,18.618259 99.262825,-1.076092 146.635498,14.909389 
	C193.932175,30.869221 218.860504,74.583588 217.562714,116.564270 
	C215.802002,173.518295 170.480774,210.444214 132.220245,215.394882 
	C130.201401,205.553497 132.479385,196.251389 135.963547,187.219940 
	C142.249466,170.925888 152.965668,157.537888 164.750610,144.980331 
	C171.358856,137.938843 178.570175,131.463150 185.175354,124.418961 
	C188.555069,120.814583 191.736542,116.809685 194.068283,112.479942 
	C199.711182,102.001846 197.531921,92.371109 187.596069,85.940613 
	C181.815842,82.199638 175.166992,79.710464 168.731628,77.094322 
	C160.131058,73.597961 151.358414,70.524872 142.333893,66.759216 
	C137.676056,57.382660 127.286346,54.077225 115.639847,57.859482 
M168.623932,32.981136 
	C153.870941,17.861923 127.816078,11.787919 116.506165,16.583677 
	C117.414383,17.072680 118.208382,17.684374 119.105309,17.955130 
	C130.301376,21.334919 141.581161,24.454082 152.697876,28.074762 
	C161.675232,30.998653 170.309113,35.171688 176.606674,42.285561 
	C187.592453,54.695328 195.868683,68.909988 200.956558,84.755058 
	C204.533493,95.894691 207.564163,107.209732 210.909119,118.687912 
	C211.282364,117.107735 211.990448,115.568214 211.942429,114.052643 
	C211.765610,108.471573 211.571457,102.872841 210.962875,97.326942 
	C208.849503,78.067574 200.237640,61.887817 186.704590,48.322510 
	C181.272156,42.877148 175.153244,38.116623 168.623932,32.981136 
z"/>
<path fill="#FBFCF9" opacity="1.000000" stroke="none" 
	d="
M117.258514,79.964455 
	C121.850349,94.174545 114.550583,106.029739 100.378609,108.011620 
	C90.334366,109.416260 80.135300,101.104034 78.837090,90.455315 
	C77.486145,79.373924 85.243797,69.191498 95.947144,67.997276 
	C105.373177,66.945572 112.381577,70.796677 117.258514,79.964455 
M101.868011,101.901405 
	C103.234192,101.325439 104.685272,100.893951 105.952324,100.149323 
	C112.617699,96.232224 114.847145,87.812408 111.055443,81.154900 
	C107.126732,74.256805 98.582405,71.920006 91.716812,75.865952 
	C86.052795,79.121315 83.425377,85.691055 85.215668,92.121780 
	C87.033455,98.651276 92.669815,102.162582 101.868011,101.901405 
z"/>
<path fill="#5B5E5B" opacity="1.000000" stroke="none" 
	d="
M171.503418,127.632782 
	C173.932327,126.607307 176.009109,125.729279 178.085892,124.851242 
	C167.016968,134.328766 131.097855,144.837952 117.873436,131.673599 
	C136.774765,137.525864 154.091507,134.083038 171.503418,127.632782 
z"/>
<path fill="#199848" opacity="1.000000" stroke="none" 
	d="
M115.984543,58.058662 
	C127.286346,54.077225 137.676056,57.382660 142.016327,66.605865 
	C133.459427,64.061485 124.894325,61.159664 115.984543,58.058662 
z"/>
<path fill="#000000" opacity="1.000000" stroke="none" 
	d="
M174.411926,110.071777 
	C172.185989,110.806053 170.232346,111.269485 168.278687,111.732925 
	C167.962219,109.598297 167.302170,107.423248 167.545517,105.354485 
	C167.615540,104.759277 170.408783,103.888252 171.746338,104.160675 
	C174.655136,104.753136 175.551392,106.951096 174.411926,110.071777 
z"/>
<path fill="#000000" opacity="1.000000" stroke="none" 
	d="
M168.985352,33.012764 
	C175.153244,38.116623 181.272156,42.877148 186.704590,48.322510 
	C200.237640,61.887817 208.849503,78.067574 210.962875,97.326942 
	C211.571457,102.872841 211.765610,108.471573 211.942429,114.052643 
	C211.990448,115.568214 211.282364,117.107735 210.909119,118.687912 
	C207.564163,107.209732 204.533493,95.894691 200.956558,84.755058 
	C195.868683,68.909988 187.592453,54.695328 176.606674,42.285561 
	C170.309113,35.171688 161.675232,30.998653 152.697876,28.074762 
	C141.581161,24.454082 130.301376,21.334919 119.105309,17.955130 
	C118.208382,17.684374 117.414383,17.072680 116.506165,16.583677 
	C127.816078,11.787919 153.870941,17.861923 168.985352,33.012764 
z"/>
<path fill="#5A5B5D" opacity="1.000000" stroke="none" 
	d="
M101.454628,101.941055 
	C92.669815,102.162582 87.033455,98.651276 85.215668,92.121780 
	C83.425377,85.691055 86.052795,79.121315 91.716812,75.865952 
	C98.582405,71.920006 107.126732,74.256805 111.055443,81.154900 
	C114.847145,87.812408 112.617699,96.232224 105.952324,100.149323 
	C104.685272,100.893951 103.234192,101.325439 101.454628,101.941055 
z"/>
</svg>